Patient4_TMGait_0pt7_01_right_05_GRF.mot
version=1
nRows=79
nColumns=19
inDegrees=no
endheader
time	F1x	F1y	F1z	M1x	M1y	M1z	F2x	F2y	F2z	M2x	M2y	M2z	EC1x	EC1y	EC1z	EC2x	EC2y	EC2z
5.24	-28.0855	784.93	94.1093	-315.783	-92.0229	734.9848	36.2879	-1.0388	10.475	-3.1109	-12.3644	-17.6066	-0.0592	0.0182	-0.0073	-0.0462	0.0165	0.9585
5.2512	-20.4593	771.919	86.1144	-310.5934	-82.908	722.348	24.004	0.22847	7.0968	-1.7737	-8.1467	-10.7237	-0.0592	0.0182	-0.0073	-0.0462	0.0165	0.9585
5.2624	-13.7286	758.3243	79.0591	-304.9953	-74.744	708.4519	13.7336	1.2782	4.1933	-0.6309	-4.5879	-4.9984	-0.0592	0.0182	-0.0073	-0.0462	0.0165	0.9585
5.2736	-8.243	745.0963	73.2643	-299.3818	-67.904	694.1699	5.929	2.1403	1.9598	0.26615	-1.8745	-0.57744	-0.0592	0.0182	-0.0073	-0.0462	0.0165	0.9585
5.2849	-4.0177	733.0645	68.8219	-294.1127	-62.4993	680.3683	0.60917	2.7598	0.39893	0.90218	-0.0081102	2.4662	-0.0592	0.0182	-0.0073	-0.0462	0.0165	0.9585
5.2961	-0.87076	722.7759	65.6607	-289.4539	-58.4339	667.6292	-2.701	3.2416	-0.57908	1.3263	1.159	4.4717	-0.0592	0.0182	-0.0073	-0.0462	0.0165	0.9585
5.3073	1.502	714.5705	63.5321	-285.5874	-55.4331	656.3725	-4.4139	3.5382	-1.1094	1.5628	1.7779	5.5552	-0.0592	0.0182	-0.0073	-0.0462	0.0165	0.9585
5.3185	3.3809	708.5942	62.2906	-282.6123	-53.3155	646.803	-5.1095	3.7159	-1.3314	1.6607	2.0456	6.0544	-0.0592	0.0182	-0.0073	-0.0462	0.0165	0.9585
5.3297	5.0736	704.8461	61.552	-280.5654	-51.6788	638.9659	-5.1077	3.6912	-1.3679	1.6302	2.0925	6.0102	-0.0592	0.0182	-0.0073	-0.0462	0.0165	0.9585
5.3409	6.8303	703.2188	61.1642	-279.4184	-50.3215	632.8008	-4.8169	3.4536	-1.3278	1.4869	2.0681	5.5973	-0.0592	0.0182	-0.0073	-0.0462	0.0165	0.9585
5.3521	8.8928	703.5374	60.8356	-279.109	-48.9063	628.1462	-4.357	2.8726	-1.2778	1.2102	2.026	4.7093	-0.0592	0.0182	-0.0073	-0.0462	0.0165	0.9585
5.3634	11.4357	705.6564	60.5384	-279.5595	-47.3313	624.8709	-3.9239	1.8933	-1.2613	0.78744	2.0221	3.3857	-0.0592	0.0182	-0.0073	-0.0462	0.0165	0.9585
5.3746	14.6008	709.5129	60.2062	-280.7199	-45.4635	622.9037	-3.4769	0.38694	-1.3	0.18457	2.0465	1.4776	-0.0592	0.0182	-0.0073	-0.0462	0.0165	0.9585
5.3858	18.4239	715.1079	59.9135	-282.5589	-43.3262	622.233	-3.0681	-1.6281	-1.371	-0.59546	2.0727	-0.94441	-0.0592	0.0182	-0.0073	-0.0462	0.0165	0.9585
5.397	22.8962	722.5209	59.7317	-285.0695	-40.964	622.9247	-2.5644	-4.1205	-1.4436	-1.5346	2.0252	-3.8817	-0.0592	0.0182	-0.0073	-0.0462	0.0165	0.9585
5.4082	27.9457	731.6714	59.7305	-288.1897	-38.4443	624.8974	-1.9237	-6.8045	-1.4262	-2.5306	1.7897	-6.9951	-0.0592	0.0182	-0.0073	-0.0462	0.0165	0.9585
5.4194	33.4348	742.3128	60.0386	-291.7933	-35.9141	627.9666	-0.96837	-9.194	-1.2233	-3.3965	1.2093	-9.7671	-0.0592	0.0182	-0.0073	-0.0462	0.0165	0.9585
5.4306	39.2551	753.931	60.6532	-295.6697	-33.4136	631.7235	0.36305	-10.3895	-0.68745	-3.7958	0.10143	-11.1705	-0.0592	0.0182	-0.0073	-0.0462	0.0165	0.9585
5.4419	45.1984	765.7753	61.6271	-299.528	-31.0702	635.6034	2.177	-9.0909	0.32571	-3.2352	-1.7141	-9.7807	-0.0592	0.0182	-0.0073	-0.0462	0.0165	0.9585
5.4531	51.174	776.833	62.8559	-302.9976	-28.858	638.8128	4.3898	-3.4946	1.9667	-1.0353	-4.3662	-3.577	-0.0592	0.0182	-0.0073	-0.0462	0.0165	0.9585
5.4643	57.0102	785.809	64.2839	-305.6061	-26.8129	640.3928	6.8142	8.6026	4.3305	3.632	-7.8794	9.8845	-0.0592	0.0182	-0.0073	-0.0462	0.0165	0.9585
5.4755	62.6752	791.1459	65.7157	-306.7919	-24.8303	639.1488	8.9554	29.6299	7.4182	11.6697	-12.0664	33.3295	-0.0592	0.0182	-0.0073	-0.0462	0.0165	0.9585
5.4867	68.0456	791.0845	66.9258	-305.9165	-22.8129	633.8015	10.0332	61.7304	11.0257	23.8632	-16.3943	69.1465	-0.0592	0.0182	-0.0073	-0.0462	0.0165	0.9585
5.4979	73.0595	783.7904	67.5856	-302.3187	-20.592	622.9932	8.8359	106.0114	14.6443	40.5909	-19.8343	118.5766	-0.0592	0.0182	-0.0073	-0.0462	0.0165	0.9585
5.5091	77.4461	767.4795	67.3161	-295.3552	-18.0168	605.4862	3.8891	161.517	17.3744	61.4372	-20.846	180.5726	-0.0592	0.0182	-0.0073	-0.0462	0.0165	0.9585
5.5204	80.8628	740.611	65.7595	-284.477	-15.0008	580.2162	-5.7193	224.379	18.0165	84.8633	-17.757	250.82	-0.0592	0.0182	-0.0073	-0.0462	0.0165	0.9585
5.5316	82.7343	702.1757	62.6405	-269.3268	-11.5878	546.5863	-19.0491	287.7701	15.0277	108.2324	-9.2956	321.6153	-0.0592	0.0182	-0.0073	-0.0462	0.0165	0.9585
5.5428	82.5362	652.0056	57.9143	-249.8524	-7.9846	504.599	-33.3479	345.5886	8.0164	129.2352	3.8427	385.8637	-0.0592	0.0182	-0.0073	-0.0462	0.0165	0.9585
5.554	79.7903	591.1574	51.7713	-226.4315	-4.5214	455.2264	-46.6054	395.7188	-1.5844	147.1162	19.318	440.8915	-0.0592	0.0182	-0.0073	-0.0462	0.0165	0.9585
5.5652	74.3634	521.7667	44.6818	-199.8432	-1.5816	400.1411	-57.3917	439.36	-12.7774	162.3577	35.4672	487.7941	-0.0592	0.0182	-0.0073	-0.0462	0.0165	0.9585
5.5764	66.4475	446.9722	37.2122	-171.2376	0.52676	341.726	-65.1035	478.7565	-23.8818	175.885	50.2566	529.0572	-0.0592	0.0182	-0.0073	-0.0462	0.0165	0.9585
5.5876	56.5557	370.4901	29.8614	-142.0046	1.6974	282.6715	-69.6168	515.6703	-33.972	188.431	62.6383	566.7071	-0.0592	0.0182	-0.0073	-0.0462	0.0165	0.9585
5.5989	45.517	296.2984	23.025	-113.6369	2.0086	225.8678	-71.2827	550.8597	-42.2379	200.3587	71.884	601.7418	-0.0592	0.0182	-0.0073	-0.0462	0.0165	0.9585
5.6101	34.3204	227.998	16.9927	-87.503	1.6917	173.8554	-70.5125	584.1048	-48.3232	211.657	77.81	634.0395	-0.0592	0.0182	-0.0073	-0.0462	0.0165	0.9585
5.6213	23.9729	168.2905	11.9392	-64.6318	1.0454	128.5231	-67.9793	614.8849	-52.4816	222.1578	80.9273	663.2569	-0.0592	0.0182	-0.0073	-0.0462	0.0165	0.9585
5.6325	15.1813	118.567	7.9643	-45.5618	0.29238	90.808	-64.1621	642.5036	-54.9128	231.6332	81.6838	688.7691	-0.0592	0.0182	-0.0073	-0.0462	0.0165	0.9585
5.6437	8.277	78.9858	4.9899	-30.3644	-0.38366	60.7664	-59.6638	666.4652	-56.2652	239.8873	80.9779	710.2806	-0.0592	0.0182	-0.0073	-0.0462	0.0165	0.9585
5.6549	3.1913	48.8583	2.8942	-18.7822	-0.93293	37.8844	-54.8729	686.4514	-56.7639	246.8091	79.2446	727.5147	-0.0592	0.0182	-0.0073	-0.0462	0.0165	0.9585
5.6661	-0.23371	27.0476	1.4615	-10.3886	-1.2695	21.3017	-50.3282	702.496	-56.8829	252.3825	77.1763	740.6627	-0.0592	0.0182	-0.0073	-0.0462	0.0165	0.9585
5.6774	-2.2198	12.2044	0.56157	-4.6698	-1.4067	10.035	-46.2396	714.9016	-56.7629	256.7091	75.0428	750.0466	-0.0592	0.0182	-0.0073	-0.0462	0.0165	0.9585
5.6886	-3.0035	2.965	0.0049221	-1.1085	-1.3018	3.0254	-42.8529	724.3245	-56.5664	259.9997	73.1121	756.4171	-0.0592	0.0182	-0.0073	-0.0462	0.0165	0.9585
5.6998	-3.0163	-1.9898	-0.27635	0.80568	-1.0881	-0.71326	-40.0882	731.4246	-56.3337	262.4886	71.4211	760.4056	-0.0592	0.0182	-0.0073	-0.0462	0.0165	0.9585
5.711	-2.598	-3.9618	-0.37371	1.5678	-0.83126	-2.1992	-37.9442	736.8627	-56.085	264.3969	69.992	762.7059	-0.0592	0.0182	-0.0073	-0.0462	0.0165	0.9585
5.7222	-2.0125	-4.0479	-0.3536	1.6017	-0.59463	-2.2534	-36.288	741.0921	-55.9344	265.884	68.8912	763.7254	-0.0592	0.0182	-0.0073	-0.0462	0.0165	0.9585
5.7334	-1.4148	-3.1373	-0.24893	1.2454	-0.41776	-1.591	-35.0742	744.6549	-55.7914	267.1328	68.0197	764.0423	-0.0592	0.0182	-0.0073	-0.0462	0.0165	0.9585
5.7446	-0.90553	-1.8042	-0.14292	0.72466	-0.27866	-0.61959	-34.2256	747.9004	-55.7428	268.2618	67.4247	763.9829	-0.0592	0.0182	-0.0073	-0.0462	0.0165	0.9585
5.7559	-0.5134	-0.46612	-0.005495	0.19803	-0.21963	0.32831	-33.725	751.1154	-55.7175	269.363	67.0179	763.8581	-0.0592	0.0182	-0.0073	-0.0462	0.0165	0.9585
5.7671	-0.25467	0.69697	0.080747	-0.26258	-0.17367	1.161	-33.5053	754.357	-55.8124	270.4516	66.8565	763.7248	-0.0592	0.0182	-0.0073	-0.0462	0.0165	0.9585
5.7783	-0.080684	1.5714	0.1779	-0.61528	-0.1813	1.7688	-33.5458	757.6693	-55.9954	271.5405	66.889	763.6392	-0.0592	0.0182	-0.0073	-0.0462	0.0165	0.9585
5.7895	-0.0020087	2.1797	0.22073	-0.86599	-0.18223	2.2018	-33.7579	761.0346	-56.2888	272.6255	67.096	763.5569	-0.0592	0.0182	-0.0073	-0.0462	0.0165	0.9585
5.8007	0.056385	2.5492	0.27075	-1.0241	-0.20926	2.4538	-34.083	764.3956	-56.6425	273.6939	67.3997	763.4068	-0.0592	0.0182	-0.0073	-0.0462	0.0165	0.9585
5.8119	0.053365	2.7711	0.28574	-1.1219	-0.22869	2.6328	-34.3975	767.6696	-56.9692	274.7271	67.6736	763.0536	-0.0592	0.0182	-0.0073	-0.0462	0.0165	0.9585
5.8231	0.05928	2.8954	0.30321	-1.1805	-0.25351	2.7385	-34.6073	770.726	-57.2456	275.6886	67.859	762.3488	-0.0592	0.0182	-0.0073	-0.0462	0.0165	0.9585
5.8344	0.015426	3.0018	0.31557	-1.2255	-0.28583	2.8812	-34.5607	773.4109	-57.3871	276.533	67.827	761.1083	-0.0592	0.0182	-0.0073	-0.0462	0.0165	0.9585
5.8456	-0.0065507	3.0873	0.32124	-1.2582	-0.3093	3.0036	-34.1692	775.5838	-57.4329	277.2083	67.577	759.1842	-0.0592	0.0182	-0.0073	-0.0462	0.0165	0.9585
5.8568	-0.072892	3.1839	0.33758	-1.2853	-0.35468	3.1706	-33.3323	777.1133	-57.3688	277.6655	67.0577	756.4382	-0.0592	0.0182	-0.0073	-0.0462	0.0165	0.9585
5.868	-0.10822	3.2378	0.33843	-1.2976	-0.38454	3.2714	-32.0157	777.9269	-57.2487	277.8677	66.3023	752.8154	-0.0592	0.0182	-0.0073	-0.0462	0.0165	0.9585
5.8792	-0.20159	3.245	0.36184	-1.2883	-0.4515	3.3304	-30.1935	777.9601	-57.0798	277.7825	65.3074	748.2682	-0.0592	0.0182	-0.0073	-0.0462	0.0165	0.9585
5.8904	-0.27791	3.1123	0.37623	-1.2282	-0.51214	3.2013	-27.8882	777.1754	-56.8681	277.3855	64.0796	742.7983	-0.0592	0.0182	-0.0073	-0.0462	0.0165	0.9585
5.9016	-0.42859	2.7805	0.42315	-1.0861	-0.62199	2.8633	-25.127	775.5494	-56.5906	276.6569	62.6031	736.4182	-0.0592	0.0182	-0.0073	-0.0462	0.0165	0.9585
5.9129	-0.58306	2.1243	0.4776	-0.8177	-0.7459	2.1449	-22.0156	773.0124	-56.1732	275.562	60.834	729.1142	-0.0592	0.0182	-0.0073	-0.0462	0.0165	0.9585
5.9241	-0.79287	1.0576	0.5603	-0.38054	-0.91282	0.98693	-18.6428	769.4485	-55.5904	274.0459	58.7761	720.8331	-0.0592	0.0182	-0.0073	-0.0462	0.0165	0.9585
5.9353	-0.97221	-0.52842	0.64313	0.26416	-1.0738	-0.77377	-15.1463	764.6788	-54.8061	272.0319	56.4377	711.4537	-0.0592	0.0182	-0.0073	-0.0462	0.0165	0.9585
5.9465	-1.1063	-2.6509	0.71153	1.124	-1.2029	-3.1199	-11.6076	758.5619	-53.9055	269.4516	53.9279	700.8925	-0.0592	0.0182	-0.0073	-0.0462	0.0165	0.9585
5.9577	-1.064	-5.2275	0.73126	2.1575	-1.215	-5.9831	-8.1156	751.0965	-53	266.2907	51.3811	689.1993	-0.0592	0.0182	-0.0073	-0.0462	0.0165	0.9585
5.9689	-0.7488	-7.9468	0.64692	3.2386	-1.0015	-8.9965	-4.726	742.5022	-52.2803	262.6216	48.994	676.5987	-0.0592	0.0182	-0.0073	-0.0462	0.0165	0.9585
5.9801	0.022425	-10.238	0.40177	4.1308	-0.42213	-11.5521	-1.4722	733.2439	-51.9373	258.613	46.9514	663.5308	-0.0592	0.0182	-0.0073	-0.0462	0.0165	0.9585
5.9914	1.4117	-11.0998	-0.10383	4.4309	0.69402	-12.5379	1.6594	723.8606	-52.122	254.479	45.3881	650.456	-0.0592	0.0182	-0.0073	-0.0462	0.0165	0.9585
6.0026	3.584	-9.0937	-0.93904	3.5552	2.4946	-10.3817	4.708	714.8901	-52.9296	250.444	44.3909	637.8402	-0.0592	0.0182	-0.0073	-0.0462	0.0165	0.9585
6.0138	6.6465	-2.2466	-2.2068	0.71111	5.1224	-2.9128	7.7551	706.6478	-54.3059	246.6721	43.904	625.9456	-0.0592	0.0182	-0.0073	-0.0462	0.0165	0.9585
6.025	10.5352	11.7752	-3.9015	-5.0393	8.5503	12.4353	10.8834	699.1549	-56.1105	243.2237	43.7965	614.8134	-0.0592	0.0182	-0.0073	-0.0462	0.0165	0.9585
6.0362	14.9596	35.488	-5.9937	-14.6978	12.6031	38.4192	14.1848	691.9608	-58.064	239.9941	43.8112	604.0572	-0.0592	0.0182	-0.0073	-0.0462	0.0165	0.9585
6.0474	19.176	70.9731	-8.2256	-29.0789	16.6985	77.3436	17.6875	684.1549	-59.8077	236.7065	43.6441	592.954	-0.0592	0.0182	-0.0073	-0.0462	0.0165	0.9585
6.0586	21.9217	119.0484	-10.1806	-48.4777	19.8456	130.1147	21.4043	674.3665	-60.9338	232.9178	42.9597	580.3829	-0.0592	0.0182	-0.0073	-0.0462	0.0165	0.9585
6.0699	21.3865	178.1608	-11.0636	-72.2163	20.4638	195.0845	25.2176	660.9531	-61.029	228.0752	41.4642	565.0515	-0.0592	0.0182	-0.0073	-0.0462	0.0165	0.9585
6.0811	16.3015	243.8707	-9.878	-98.4389	16.9705	267.404	28.9468	642.1829	-59.7799	221.581	38.9803	545.5878	-0.0592	0.0182	-0.0073	-0.0462	0.0165	0.9585
6.0923	7.5208	309.3969	-5.3961	-124.3488	8.4189	339.5357	32.2818	616.5632	-56.9913	212.9003	35.4636	520.8464	-0.0592	0.0182	-0.0073	-0.0462	0.0165	0.9585
6.1035	-2.7855	367.8748	2.823	-147.2343	-4.7138	403.5974	34.9214	583.0708	-52.7241	201.6427	31.0801	490.0309	-0.0592	0.0182	-0.0073	-0.0462	0.0165	0.9585
6.1147	-12.8882	416.7735	13.4943	-166.1488	-20.2887	456.4352	36.5529	541.4897	-47.259	187.6697	26.1546	453.0311	-0.0592	0.0182	-0.0073	-0.0462	0.0165	0.9585
